<?xml version="1.0" encoding="utf-8"?>
<!-- Generator: Adobe Illustrator 24.1.1, SVG Export Plug-In . SVG Version: 6.00 Build 0)  -->
<svg version="1.1" id="Layer_1" xmlns="http://www.w3.org/2000/svg" xmlns:xlink="http://www.w3.org/1999/xlink" x="0px" y="0px"
	 viewBox="0 0 28 49" style="enable-background:new 0 0 28 49;" xml:space="preserve">
<style type="text/css">
	.st0{fill:#696F77;}
</style>
<path class="st0" d="M14,9.3L1,16.8v15l13,7.5l13-7.5v-15L14,9.3z M25,30.6l-11,6.3L3,30.6V17.9l11-6.3l11,6.3V30.6z"/>
<polygon class="st0" points="0,15 13,7.5 13,0 11,0 11,6.3 0,12.7 0,15 "/>
<polygon class="st0" points="0,33.5 13,41 13,49 11,49 11,42.2 0,35.8 0,33.5 "/>
<polygon class="st0" points="15,0 15,7.5 28,15 28,15 28,12.7 28,12.7 17,6.3 17,0 "/>
<polygon class="st0" points="15,49 15,41 28,33.5 28,33.5 28,35.8 28,35.8 17,42.2 17,49 "/>
</svg>
